<?xml version="1.0" standalone="no"?>
<!DOCTYPE svg PUBLIC "-//W3C//DTD SVG 20010904//EN"
 "http://www.w3.org/TR/2001/REC-SVG-20010904/DTD/svg10.dtd">
<svg version="1.0" xmlns="http://www.w3.org/2000/svg"
 width="1536.000000pt" height="1536.000000pt" viewBox="0 0 1536.000000 1536.000000"
 preserveAspectRatio="xMidYMid meet">

<g transform="translate(0.000000,1536.000000) scale(0.100000,-0.100000)"
fill="#000000" stroke="none">
<path d="M7271 14003 l-354 -3 5 -485 4 -485 -685 0 c-377 0 -818 -3 -978 -7
l-293 -6 0 251 0 252 -490 0 -490 0 -2 -247 -3 -248 -242 0 -243 0 0 -498 0
-497 243 2 242 3 2 475 c1 261 2 483 2 493 1 17 15 18 239 13 l237 -4 5 -133
c3 -74 4 -295 2 -491 l-2 -358 -240 0 -240 0 0 -245 0 -245 240 0 240 0 0
-255 0 -255 -245 0 -245 0 0 -487 c1 -384 -2 -488 -12 -495 -7 -5 -113 -7
-240 -5 l-228 5 0 -739 0 -739 245 0 245 0 0 740 0 740 240 0 240 0 1 53 c0
28 1 248 2 487 l2 435 243 3 c221 2 242 4 244 20 4 37 4 111 6 781 l2 693
1983 -6 1982 -6 1 -243 1 -242 244 -1 244 0 3 -252 2 -251 -755 5 -755 4 1
-1204 c0 -662 -3 -1216 -7 -1231 l-6 -26 -242 1 c-132 1 -245 0 -251 -1 -5 -1
-14 0 -20 1 -5 1 -112 2 -236 2 -186 0 -232 -3 -255 -16 -26 -14 -27 -15 -7
-16 l22 0 -5 -196 c-2 -108 -6 -199 -8 -203 -2 -3 -1 -26 4 -51 5 -25 5 -47 1
-50 -8 -6 -10 -453 -2 -460 4 -3 12 -22 18 -42 9 -32 9 -38 -3 -38 -12 0 -13
-8 -8 -37 4 -21 10 -39 15 -41 4 -2 4 -15 -1 -30 -12 -36 -17 -292 -6 -292 5
0 16 -8 25 -17 13 -15 35 -18 136 -19 66 0 155 -2 197 -4 69 -3 77 -5 81 -24
2 -12 5 -2 6 20 1 27 6 44 16 48 8 3 15 11 15 17 0 8 -4 8 -15 -1 -8 -7 -15
-11 -16 -9 -8 36 -4 50 13 46 19 -5 24 3 9 18 -5 6 -11 44 -14 85 -3 47 -2 60
3 35 l7 -40 1 43 c1 23 6 42 10 42 4 0 9 -127 10 -282 2 -156 5 -301 7 -323 3
-22 1 -53 -3 -70 -6 -22 -11 11 -16 115 -8 166 -23 258 -25 153 -1 -34 -4 -70
-7 -80 -5 -15 -4 -16 6 -3 9 12 10 4 5 -35 -3 -27 -1 -65 4 -82 9 -31 -1 -48
-12 -20 -4 9 -6 9 -6 0 -1 -6 4 -15 9 -18 6 -3 10 -16 10 -28 0 -18 -2 -20
-11 -7 -9 12 -10 12 -5 -3 3 -10 6 -28 6 -39 0 -15 5 -19 20 -15 11 3 20 2 20
-3 0 -15 -132 -20 -541 -19 l-417 1 -1 179 c-1 107 3 179 8 179 6 0 12 -19 14
-42 2 -27 4 -18 3 22 0 36 -1 57 -4 48 -9 -43 -22 -12 -22 52 l0 70 -42 2
c-24 0 -52 0 -62 -1 -11 -1 -23 4 -27 10 -9 16 -269 26 -269 11 0 -7 37 -12
108 -15 85 -2 74 -3 -56 -5 l-162 -2 2 -512 3 -513 249 -2 c136 -1 250 -3 251
-5 3 -3 9 -863 6 -930 l-1 -38 -494 0 -493 0 -6 78 c-4 42 -7 268 -7 501 0
234 -2 426 -4 428 -5 5 -485 7 -490 2 -7 -6 -8 -87 -7 -566 l1 -453 188 0
c176 0 238 -8 197 -24 -9 -3 -21 -3 -27 0 -5 3 -86 8 -179 10 l-169 3 0 -251
c0 -234 1 -250 18 -243 9 5 85 9 167 11 83 2 164 6 182 9 21 4 33 1 35 -7 9
-26 37 13 40 55 l3 42 12 -35 11 -35 2 40 c0 22 1 121 1 220 0 99 3 172 7 163
7 -16 8 -272 4 -726 l-2 -202 -187 1 c-255 1 -248 0 -272 63 l-20 51 -1 -60
c-1 -33 -1 -281 0 -551 1 -479 1 -492 -19 -497 -10 -2 -118 -3 -240 -1 l-221
4 -2 -198 c-4 -390 -3 -542 3 -542 3 0 2 -24 -3 -52 -11 -66 -2 -159 15 -152
7 2 26 0 42 -4 17 -5 44 -4 63 2 21 6 36 6 40 0 20 -27 58 -34 184 -35 73 0
142 -4 153 -8 11 -5 -204 -8 -478 -8 l-498 1 3 244 3 243 -240 -1 c-132 -1
-246 -1 -252 -1 -10 1 -13 57 -13 246 l0 245 -245 0 -245 0 0 -256 0 -256 238
3 237 4 3 -248 2 -247 250 0 250 0 0 -246 0 -246 1225 4 1225 3 0 -190 c0
-104 3 -214 6 -242 l7 -53 993 0 994 0 0 240 0 240 255 0 255 0 0 245 0 245
245 0 245 0 0 245 0 245 485 0 485 0 2 -247 3 -248 725 -3 c399 -1 735 0 748
3 l22 5 0 245 0 245 250 0 250 0 0 255 0 256 -217 -1 c-120 -1 -233 -1 -250
-1 l-33 1 0 245 0 245 -245 0 -245 0 0 750 0 750 248 2 247 3 3 243 2 242 245
0 244 0 -2 248 -2 247 248 3 247 2 0 250 0 250 -247 0 -248 0 3 972 c2 535 1
982 -3 995 l-5 23 -740 0 -740 0 0 -495 0 -495 -244 0 -243 0 -6 68 c-4 37 -7
149 -7 250 l0 183 -240 -3 -240 -3 0 253 0 252 244 0 244 0 3 28 c2 15 3 566
1 1225 l-2 1197 -244 0 -245 0 -7 58 c-4 31 -4 147 -1 256 l6 199 -249 -6
c-192 -5 -249 -4 -253 6 -2 6 -2 119 0 249 l5 237 -248 -2 -248 -2 3 253 2
254 -178 -2 c-98 -2 -212 -2 -254 -1 l-76 1 1 243 1 242 -252 -3 -251 -4 -1
242 c-1 133 -3 246 -6 250 -5 8 -70 8 -664 3z m136 -5345 c-2 -13 -4 -3 -4 22
0 25 2 35 4 23 2 -13 2 -33 0 -45z m13 -80 c0 -10 -4 -18 -10 -18 -5 0 -10 15
-10 33 0 24 3 28 10 17 5 -8 10 -23 10 -32z m-53 -30 c-3 -8 -6 -5 -6 6 -1 11
2 17 5 13 3 -3 4 -12 1 -19z m2566 -80 c3 -57 4 -166 2 -243 l-5 -140 -227 -5
c-126 -3 -236 -3 -245 -1 -17 3 -18 23 -18 247 l0 244 244 0 243 0 6 -102z
m1977 -143 l0 -245 -87 0 c-49 -1 -159 -1 -245 -1 l-158 0 0 -249 0 -250 -250
0 -250 0 0 -250 0 -250 -250 0 -250 0 -1 -707 c-1 -390 0 -725 1 -745 l1 -37
-248 2 -248 2 4 -242 3 -243 -986 0 c-542 0 -989 -1 -993 -2 -5 -2 -9 441 -11
985 l-3 987 1239 0 1240 0 6 23 c3 12 6 124 6 250 l0 227 -245 0 -245 0 2 248
3 247 243 3 242 2 0 -250 0 -250 245 0 245 0 0 250 0 250 248 2 247 3 3 243 2
242 245 0 245 0 0 -245z m-4523 198 c-3 -10 -5 -4 -5 12 0 17 2 24 5 18 2 -7
2 -21 0 -30z m27 -441 c-8 -84 -8 -85 -14 -37 l-6 50 -5 -45 c-4 -35 -6 -28
-7 33 -1 46 2 77 8 77 6 0 11 69 12 183 l1 182 10 -178 c5 -100 6 -217 1 -265z
m-39 342 c-10 -11 -12 -7 -10 19 5 59 7 62 15 28 6 -24 4 -38 -5 -47z m2 -56
c-3 -8 -6 -5 -6 6 -1 11 2 17 5 13 3 -3 4 -12 1 -19z m-10 -195 c-3 -10 -5 -4
-5 12 0 17 2 24 5 18 2 -7 2 -21 0 -30z m2068 -343 l0 -245 -242 -3 -243 -2 0
249 0 250 243 -2 242 -2 0 -245z m-1355 230 c0 -5 -3 -10 -7 -11 -5 0 -21 -2
-36 -4 -24 -3 -26 -1 -16 11 13 16 59 19 59 4z m370 -44 c0 -30 -4 -57 -9 -60
-13 -8 -21 18 -15 50 4 23 3 25 -9 16 -11 -10 -17 -9 -27 3 -7 9 -8 15 -2 15
6 0 12 -4 14 -9 2 -5 10 -2 18 7 13 14 13 15 0 10 -8 -3 -28 1 -45 8 -30 13
-29 13 23 14 l52 0 0 -54z m-460 34 c0 -13 -11 -13 -30 0 -12 8 -11 10 8 10
12 0 22 -4 22 -10z m309 6 c-7 -7 -129 -10 -136 -3 -3 4 27 7 67 7 40 0 71 -2
69 -4z m-892 -168 c-2 -18 -4 -4 -4 32 0 36 2 50 4 33 2 -18 2 -48 0 -65z
m580 65 c0 -16 -2 -22 -4 -15 -7 19 -21 14 -26 -10 -3 -16 -5 -13 -6 10 0 18
3 31 8 27 5 -3 12 -1 16 5 10 16 13 12 12 -17z m-620 -60 c-3 -10 -5 -4 -5 12
0 17 2 24 5 18 2 -7 2 -21 0 -30z m1070 5 c-3 -8 -6 -5 -6 6 -1 11 2 17 5 13
3 -3 4 -12 1 -19z m-442 -28 c3 -5 2 -10 -4 -10 -5 0 -13 5 -16 10 -3 6 -2 10
4 10 5 0 13 -4 16 -10z m-38 -52 c-2 -13 -4 -5 -4 17 -1 22 1 32 4 23 2 -10 2
-28 0 -40z m481 0 l-1 -53 -6 45 c-6 43 -5 60 5 60 2 0 3 -24 2 -52z m-436
-123 c3 -13 1 -22 -3 -19 -9 5 -13 44 -5 44 2 0 6 -11 8 -25z m-42 -30 c0 -8
3 -14 8 -14 18 3 32 -2 32 -11 0 -5 -9 -10 -20 -10 -11 0 -20 -5 -20 -11 0 -7
11 -9 29 -6 19 4 33 1 40 -7 10 -11 3 -15 -34 -18 -26 -2 -48 -1 -51 1 -9 9
-4 91 6 91 6 0 10 -7 10 -15z m247 -21 c-3 -3 -12 -4 -19 -1 -8 3 -5 6 6 6 11
1 17 -2 13 -5z m23 -44 c11 -7 -1 -10 -40 -10 -39 0 -51 3 -40 10 8 5 26 10
40 10 14 0 32 -5 40 -10z m-1933 -6 c-3 -3 -12 -4 -19 -1 -8 3 -5 6 6 6 11 1
17 -2 13 -5z m2096 -1 c-18 -2 -48 -2 -65 0 -18 2 -4 4 32 4 36 0 50 -2 33 -4z
m3503 -26 c1 -1 4 -110 6 -243 l4 -241 -235 4 c-129 2 -236 5 -237 6 -1 1 -4
108 -5 237 l-3 235 45 5 c38 4 422 1 425 -3z m-483 -689 c-1 -112 -2 -215 -2
-229 l-1 -26 -237 1 -238 1 -3 228 -2 227 242 0 243 0 -2 -202z m-5973 -1308
c0 -5 -4 -10 -10 -10 -5 0 -10 5 -10 10 0 6 5 10 10 10 6 0 10 -4 10 -10z
m-430 -30 c0 -5 -6 -10 -14 -10 -8 0 -18 5 -21 10 -3 6 3 10 14 10 12 0 21 -4
21 -10z m87 -6 c-3 -3 -12 -4 -19 -1 -8 3 -5 6 6 6 11 1 17 -2 13 -5z m289
-270 c-4 -20 -10 -34 -13 -30 -3 3 -2 21 1 42 4 20 10 34 13 30 3 -3 2 -21 -1
-42z m-4 -114 c3 -16 1 -30 -4 -30 -4 0 -8 14 -8 30 0 17 2 30 4 30 2 0 6 -13
8 -30z m137 -86 c2 -2 2 -6 0 -9 -8 -7 -49 7 -49 17 0 8 38 2 49 -8z m1398
-386 c-2 -24 -4 -5 -4 42 0 47 2 66 4 43 2 -24 2 -62 0 -85z m3560 -95 c-32
-4 -38 -8 -37 -26 3 -35 -1 -44 -10 -22 -20 46 -13 55 38 53 44 -1 45 -2 9 -5z
m200 -4 c-12 -7 -27 -7 -45 0 -25 9 -24 9 18 10 36 0 41 -2 27 -10z m150 -3
c-8 -8 -24 -12 -41 -9 -34 7 -15 23 27 23 24 0 26 -2 14 -14z m-352 -16 c3 -5
1 -10 -4 -10 -6 0 -11 5 -11 10 0 6 2 10 4 10 3 0 8 -4 11 -10z m432 -132 c-2
-18 -4 -4 -4 32 0 36 2 50 4 33 2 -18 2 -48 0 -65z m0 -245 c-3 -10 -5 -4 -5
12 0 17 2 24 5 18 2 -7 2 -21 0 -30z m-467 -53 c0 -14 7 -20 23 -21 21 0 21
-1 2 -8 -11 -5 -23 -7 -26 -5 -11 6 -17 54 -8 54 5 0 9 -9 9 -20z m60 6 c0 -2
-7 -7 -16 -10 -8 -3 -12 -2 -9 4 6 10 25 14 25 6z m357 -2 c-3 -3 -12 -4 -19
-1 -8 3 -5 6 6 6 11 1 17 -2 13 -5z m3 -24 c11 -7 -3 -9 -45 -9 -52 1 -55 3
-25 9 51 11 53 11 70 0z m-167 -7 c-13 -2 -35 -2 -50 0 -16 2 -5 4 22 4 28 0
40 -2 28 -4z m-2823 -23 c-30 -5 -61 -4 -70 1 -10 5 10 8 55 7 l70 0 -55 -8z
m843 3 c-56 -2 -151 -2 -210 0 -59 1 -13 3 102 3 116 0 164 -2 108 -3z m160 0
c-7 -2 -21 -2 -30 0 -10 3 -4 5 12 5 17 0 24 -2 18 -5z m610 0 c-7 -2 -21 -2
-30 0 -10 3 -4 5 12 5 17 0 24 -2 18 -5z m125 0 c-15 -2 -42 -2 -60 0 -18 2
-6 4 27 4 33 0 48 -2 33 -4z m375 0 c-13 -2 -33 -2 -45 0 -13 2 -3 4 22 4 25
0 35 -2 23 -4z m435 -13 c5 -13 3 -13 -11 -2 -9 8 -21 11 -26 8 -5 -4 -13 -1
-16 5 -5 7 2 9 21 7 15 -2 30 -10 32 -18z m2 -56 c0 -21 -4 -33 -10 -29 -17
10 -11 65 7 65 2 0 3 -16 3 -36z m-2960 -43 c0 -6 -4 -13 -10 -16 -5 -3 -10 1
-10 9 0 9 5 16 10 16 6 0 10 -4 10 -9z m2960 -41 c0 -5 -5 -10 -11 -10 -5 0
-7 5 -4 10 3 6 8 10 11 10 2 0 4 -4 4 -10z m-2973 -237 c-3 -10 -5 -4 -5 12 0
17 2 24 5 18 2 -7 2 -21 0 -30z m2071 -79 c-9 -9 -62 -13 -73 -5 -5 3 8 8 30
11 41 6 53 4 43 -6z m-3110 -1 c-10 -2 -26 -2 -35 0 -10 3 -2 5 17 5 19 0 27
-2 18 -5z m3425 0 c-7 -2 -21 -2 -30 0 -10 3 -4 5 12 5 17 0 24 -2 18 -5z
m184 0 c-20 -2 -52 -2 -70 0 -17 2 0 4 38 4 39 0 53 -2 32 -4z m-4100 -9 c-3
-3 -12 -4 -19 -1 -8 3 -5 6 6 6 11 1 17 -2 13 -5z m3500 -46 c-3 -7 -5 -2 -5
12 0 14 2 19 5 13 2 -7 2 -19 0 -25z m0 -65 c-3 -10 -5 -2 -5 17 0 19 2 27 5
18 2 -10 2 -26 0 -35z m-1980 -45 c-3 -8 -6 -5 -6 6 -1 11 2 17 5 13 3 -3 4
-12 1 -19z m-520 -330 c-3 -7 -5 -2 -5 12 0 14 2 19 5 13 2 -7 2 -19 0 -25z
m1223 -2 c14 -2 -67 -3 -180 -3 -113 0 -173 3 -135 6 67 6 262 4 315 -3z m123
-3 c-13 -2 -35 -2 -50 0 -16 2 -5 4 22 4 28 0 40 -2 28 -4z m660 0 c-24 -2
-62 -2 -85 0 -24 2 -5 4 42 4 47 0 66 -2 43 -4z m110 0 c-7 -2 -19 -2 -25 0
-7 3 -2 5 12 5 14 0 19 -2 13 -5z m84 1 c-3 -3 -12 -4 -19 -1 -8 3 -5 6 6 6
11 1 17 -2 13 -5z m56 -1 c-7 -2 -19 -2 -25 0 -7 3 -2 5 12 5 14 0 19 -2 13
-5z m120 0 c-7 -2 -19 -2 -25 0 -7 3 -2 5 12 5 14 0 19 -2 13 -5z m-4364 -188
c-5 -12 -7 6 -7 50 1 69 1 69 8 20 4 -27 3 -59 -1 -70z m458 -301 c-3 -3 -12
-4 -19 -1 -8 3 -5 6 6 6 11 1 17 -2 13 -5z"/>
<path d="M8075 6599 c-44 -3 -71 -7 -60 -9 11 -2 310 -5 665 -5 355 -1 689 -4
743 -6 53 -2 97 -1 97 2 0 3 91 6 202 7 144 1 198 -2 188 -9 -12 -9 -11 -9 5
-3 11 4 119 9 240 11 120 2 221 6 224 8 6 7 54 6 -1144 8 -594 1 -1116 -1
-1160 -4z"/>
<path d="M10380 5721 c0 -11 5 -23 10 -26 6 -4 10 5 10 19 0 14 -4 26 -10 26
-5 0 -10 -9 -10 -19z"/>
<path d="M10346 5626 c3 -9 11 -16 16 -16 13 0 5 23 -10 28 -7 2 -10 -2 -6
-12z"/>
<path d="M7961 5324 c0 -11 3 -14 6 -6 3 7 2 16 -1 19 -3 4 -6 -2 -5 -13z"/>
<path d="M7964 5275 c-3 -8 -4 -20 -2 -27 3 -7 7 -1 10 15 6 29 1 36 -8 12z"/>
<path d="M6105 12030 l-650 -5 -2 -495 c-1 -365 2 -497 10 -502 7 -4 117 -8
245 -8 l232 0 1 -62 c0 -35 1 -146 2 -248 l2 -185 500 0 500 0 3 258 2 257
-151 0 c-135 0 -152 2 -167 19 -10 10 -28 21 -42 25 -27 6 -59 -8 -47 -21 5
-4 12 -1 16 6 6 10 10 10 16 1 4 -6 17 -15 29 -20 14 -6 -8 -9 -69 -9 l-90 -1
-1 215 c-1 180 1 215 13 215 12 0 12 3 -1 16 -9 8 -14 20 -11 25 8 12 195 12
195 -1 0 -5 7 -10 15 -10 8 0 15 5 15 10 0 6 53 10 140 10 l140 0 0 255 0 255
-57 1 c-32 0 -76 1 -98 2 -22 1 -332 0 -690 -3z"/>
<path d="M6800 11500 c0 -5 24 -10 53 -10 37 0 48 3 37 10 -20 13 -90 13 -90
0z"/>
<path d="M6918 11493 c7 -3 16 -2 19 1 4 3 -2 6 -13 5 -11 0 -14 -3 -6 -6z"/>
<path d="M6485 11480 c-4 -6 11 -10 37 -9 33 0 38 2 23 9 -28 12 -53 12 -60 0z"/>
<path d="M6701 11481 c-10 -6 -10 -10 -1 -16 13 -8 24 -1 19 14 -3 6 -10 7
-18 2z"/>
<path d="M6608 11473 c6 -2 18 -2 25 0 6 3 1 5 -13 5 -14 0 -19 -2 -12 -5z"/>
<path d="M6753 11473 c9 -2 25 -2 35 0 9 3 1 5 -18 5 -19 0 -27 -2 -17 -5z"/>
<path d="M6880 11461 c0 -6 -19 -12 -42 -13 l-43 -1 37 -4 c41 -5 79 9 59 21
-6 4 -11 2 -11 -3z"/>
<path d="M6548 11443 c23 -2 59 -2 80 0 20 2 1 4 -43 4 -44 0 -61 -2 -37 -4z"/>
<path d="M6923 11400 c0 -25 2 -35 4 -22 2 12 2 32 0 45 -2 12 -4 2 -4 -23z"/>
<path d="M6460 11420 c0 -5 5 -10 10 -10 6 0 10 5 10 10 0 6 -4 10 -10 10 -5
0 -10 -4 -10 -10z"/>
<path d="M6461 11283 c0 -43 4 -87 9 -98 7 -17 9 -17 9 -2 1 9 8 17 16 17 19
0 19 11 0 36 -8 11 -14 41 -15 72 0 28 -4 52 -10 52 -6 0 -10 -32 -9 -77z"/>
<path d="M6533 11303 c-20 -8 -15 -23 7 -23 11 0 20 7 20 15 0 15 -6 17 -27 8z"/>
<path d="M6896 11173 c10 -40 14 -41 14 -5 0 18 -5 32 -10 32 -6 0 -8 -11 -4
-27z"/>
<path d="M6510 11112 c0 -5 14 -7 30 -4 17 2 30 6 30 8 0 2 -13 4 -30 4 -16 0
-30 -4 -30 -8z"/>
<path d="M6618 11113 c7 -3 16 -2 19 1 4 3 -2 6 -13 5 -11 0 -14 -3 -6 -6z"/>
<path d="M6748 11103 c7 -3 16 -2 19 1 4 3 -2 6 -13 5 -11 0 -14 -3 -6 -6z"/>
<path d="M6480 11090 c0 -5 -8 -10 -17 -10 -13 0 -14 -3 -5 -12 8 -8 15 -8 27
2 17 14 20 30 5 30 -5 0 -10 -4 -10 -10z"/>
<path d="M6914 11075 c4 -24 16 -30 16 -7 0 12 -4 22 -9 22 -5 0 -8 -7 -7 -15z"/>
<path d="M6640 11072 c0 -14 79 -24 98 -13 9 6 13 11 7 11 -5 1 -31 3 -57 6
-27 2 -48 1 -48 -4z"/>
<path d="M6772 11071 c-11 -7 -10 -10 3 -15 26 -10 105 -7 105 4 0 6 -15 10
-34 10 -19 0 -40 2 -48 5 -7 3 -19 1 -26 -4z"/>
<path d="M6448 9533 c6 -2 18 -2 25 0 6 3 1 5 -13 5 -14 0 -19 -2 -12 -5z"/>
<path d="M6578 9533 c12 -2 32 -2 45 0 12 2 2 4 -23 4 -25 0 -35 -2 -22 -4z"/>
<path d="M6743 9533 c15 -2 37 -2 50 0 12 2 0 4 -28 4 -27 0 -38 -2 -22 -4z"/>
<path d="M6918 9533 c23 -2 61 -2 85 0 23 2 4 4 -43 4 -47 0 -66 -2 -42 -4z"/>
<path d="M7138 9533 c12 -2 32 -2 45 0 12 2 2 4 -23 4 -25 0 -35 -2 -22 -4z"/>
<path d="M7408 9523 c34 -2 88 -2 120 0 31 2 3 3 -63 3 -66 0 -92 -1 -57 -3z"/>
<path d="M6453 9400 c0 -25 2 -35 4 -22 2 12 2 32 0 45 -2 12 -4 2 -4 -23z"/>
<path d="M7842 9175 c0 -16 2 -22 5 -12 2 9 2 23 0 30 -3 6 -5 -1 -5 -18z"/>
<path d="M6888 9113 c7 -3 16 -2 19 1 4 3 -2 6 -13 5 -11 0 -14 -3 -6 -6z"/>
<path d="M7260 9114 c34 -7 108 -8 103 -1 -2 4 -30 6 -61 6 -31 -1 -50 -3 -42
-5z"/>
<path d="M7380 9105 c0 -8 5 -15 10 -15 6 0 10 7 10 15 0 8 -4 15 -10 15 -5 0
-10 -7 -10 -15z"/>
<path d="M7520 9110 c0 -5 -7 -10 -17 -10 -9 0 -14 -2 -11 -5 9 -9 58 6 52 16
-7 12 -24 11 -24 -1z"/>
<path d="M5493 9053 c15 -2 37 -2 50 0 12 2 0 4 -28 4 -27 0 -38 -2 -22 -4z"/>
<path d="M5698 9053 c12 -2 30 -2 40 0 9 3 -1 5 -23 4 -22 0 -30 -2 -17 -4z"/>
<path d="M5777 9050 c12 -5 34 -5 50 0 24 7 21 8 -22 9 -38 0 -45 -2 -28 -9z"/>
<path d="M5965 9050 c-3 -5 -1 -10 4 -10 6 0 11 5 11 10 0 6 -2 10 -4 10 -3 0
-8 -4 -11 -10z"/>
<path d="M5472 9010 c0 -19 2 -27 5 -17 2 9 2 25 0 35 -3 9 -5 1 -5 -18z"/>
<path d="M6468 8990 c-3 -30 -2 -59 2 -65 4 -5 10 -19 13 -30 7 -31 6 43 -2
100 l-7 50 -6 -55z"/>
<path d="M6578 9033 c12 -2 32 -2 45 0 12 2 2 4 -23 4 -25 0 -35 -2 -22 -4z"/>
<path d="M6882 8985 c0 -16 2 -22 5 -12 2 9 2 23 0 30 -3 6 -5 -1 -5 -18z"/>
<path d="M6883 8760 c0 -25 2 -35 4 -22 2 12 2 32 0 45 -2 12 -4 2 -4 -23z"/>
<path d="M6545 8650 c-3 -5 -1 -10 4 -10 6 0 11 5 11 10 0 6 -2 10 -4 10 -3 0
-8 -4 -11 -10z"/>
<path d="M6529 8589 l-24 -24 28 -3 c21 -3 27 -9 27 -28 0 -21 4 -24 40 -24
29 0 40 -4 40 -15 0 -12 -14 -15 -70 -15 -38 0 -70 -2 -70 -5 0 -2 8 -20 17
-40 18 -37 43 -47 43 -17 1 34 160 86 160 52 0 -5 18 -10 40 -10 22 0 40 5 40
10 0 6 -18 10 -40 10 l-40 0 0 40 0 40 80 0 c81 0 103 12 55 30 -28 11 -127 2
-136 -13 -4 -5 -14 -5 -27 2 -11 6 -45 11 -76 11 -33 0 -56 5 -58 12 -3 7 -13
3 -29 -13z"/>
<path d="M3014 8567 c-2 -7 -3 -232 -2 -501 l3 -489 240 -1 240 -1 3 494 c1
339 -1 497 -8 501 -6 4 -114 7 -241 8 -169 1 -231 -2 -235 -11z"/>
<path d="M4980 8520 c0 -22 5 -40 10 -40 6 0 10 18 10 40 0 22 -4 40 -10 40
-5 0 -10 -18 -10 -40z"/>
<path d="M6467 8483 c-11 -10 -8 -83 3 -83 6 0 10 20 10 45 0 46 -2 50 -13 38z"/>
<path d="M6873 8360 c0 -25 2 -35 4 -22 2 12 2 32 0 45 -2 12 -4 2 -4 -23z"/>
<path d="M6540 8280 c0 -22 5 -40 10 -40 6 0 10 18 10 40 0 22 -4 40 -10 40
-5 0 -10 -18 -10 -40z"/>
<path d="M6620 8280 c0 -22 5 -40 10 -40 6 0 10 18 10 40 0 22 -4 40 -10 40
-5 0 -10 -18 -10 -40z"/>
<path d="M6720 8310 c0 -5 18 -10 40 -10 22 0 40 5 40 10 0 6 -18 10 -40 10
-22 0 -40 -4 -40 -10z"/>
<path d="M5021 8224 c0 -11 3 -14 6 -6 3 7 2 16 -1 19 -3 4 -6 -2 -5 -13z"/>
<path d="M6461 8208 c0 -18 4 -55 9 -83 l7 -50 2 43 c1 39 3 42 29 42 15 0 33
-5 40 -12 9 -9 12 -7 12 10 0 19 -5 22 -40 22 -38 0 -40 2 -40 30 0 17 -4 30
-10 30 -5 0 -10 -15 -9 -32z"/>
<path d="M6658 8153 c12 -2 32 -2 45 0 12 2 2 4 -23 4 -25 0 -35 -2 -22 -4z"/>
<path d="M6785 8150 c3 -5 8 -10 11 -10 2 0 4 5 4 10 0 6 -5 10 -11 10 -5 0
-7 -4 -4 -10z"/>
<path d="M6800 8090 c0 -5 5 -10 11 -10 5 0 7 5 4 10 -3 6 -8 10 -11 10 -2 0
-4 -4 -4 -10z"/>
<path d="M6535 8050 c-20 -39 -19 -50 5 -50 17 0 20 7 20 40 0 48 -4 50 -25
10z"/>
<path d="M6720 7989 c0 -5 5 -7 10 -4 6 3 10 8 10 11 0 2 -4 4 -10 4 -5 0 -10
-5 -10 -11z"/>
<path d="M6631 7921 c-8 -5 -9 -11 -3 -15 5 -3 12 1 16 9 6 17 6 18 -13 6z"/>
<path d="M4983 7720 c0 -25 2 -35 4 -22 2 12 2 32 0 45 -2 12 -4 2 -4 -23z"/>
<path d="M6473 7720 c0 -25 2 -35 4 -22 2 12 2 32 0 45 -2 12 -4 2 -4 -23z"/>
<path d="M6434 7655 c-3 -14 -3 -33 1 -42 6 -16 8 -15 19 6 14 25 10 61 -5 61
-5 0 -11 -11 -15 -25z"/>
<path d="M5578 7593 c34 -2 90 -2 125 0 34 2 6 3 -63 3 -69 0 -97 -1 -62 -3z"/>
<path d="M2520 5846 c0 -954 3 -1737 8 -1739 4 -3 114 -6 245 -8 l237 -4 0
1734 c0 953 -3 1737 -6 1742 -3 5 -113 9 -245 9 l-239 0 0 -1734z"/>
<path d="M5017 7574 c-8 -8 1 -24 14 -24 5 0 9 7 9 15 0 15 -12 20 -23 9z"/>
<path d="M4960 7560 c0 -5 5 -10 10 -10 6 0 10 5 10 10 0 6 -4 10 -10 10 -5 0
-10 -4 -10 -10z"/>
<path d="M7193 7444 c-9 -9 -9 -15 -2 -19 6 -4 8 -33 6 -73 -2 -37 -2 -50 0
-29 2 20 8 37 14 37 11 0 12 87 2 93 -5 3 -14 -1 -20 -9z"/>
<path d="M6473 7260 c0 -36 2 -50 4 -32 2 17 2 47 0 65 -2 17 -4 3 -4 -33z"/>
<path d="M7200 7110 c0 -6 7 -10 15 -10 8 0 15 2 15 4 0 2 -7 6 -15 10 -8 3
-15 1 -15 -4z"/>
<path d="M7308 7108 c8 -8 17 -8 34 0 22 10 21 11 -11 11 -27 1 -32 -2 -23
-11z"/>
<path d="M6808 7103 c6 -2 18 -2 25 0 6 3 1 5 -13 5 -14 0 -19 -2 -12 -5z"/>
<path d="M6588 7093 c7 -3 16 -2 19 1 4 3 -2 6 -13 5 -11 0 -14 -3 -6 -6z"/>
<path d="M4960 4901 c0 -12 5 -21 10 -21 6 0 10 6 10 14 0 8 -4 18 -10 21 -5
3 -10 -3 -10 -14z"/>
<path d="M5098 4633 c7 -3 16 -2 19 1 4 3 -2 6 -13 5 -11 0 -14 -3 -6 -6z"/>
<path d="M5243 4633 c26 -2 68 -2 95 0 26 2 4 3 -48 3 -52 0 -74 -1 -47 -3z"/>
<path d="M4823 4583 c15 -2 39 -2 55 0 15 2 2 4 -28 4 -30 0 -43 -2 -27 -4z"/>
<path d="M4021 3043 c1 -47 3 -60 8 -43 5 14 6 41 3 60 -5 32 -4 34 12 21 12
-10 20 -11 27 -4 8 8 7 13 0 17 -6 4 -11 5 -11 1 0 -3 -9 -1 -20 5 -19 10 -20
8 -19 -57z"/>
</g>
</svg>
